Coordinates
version=1
nRows=9
nColumns=36
inDegrees=yes

Units are S.I. units (second, meters, Newtons, ...)
If the header above contains a line with 'inDegrees', this indicates whether rotational values are in degrees (yes) or radians (no).

endheader
time	pelvis_tilt	pelvis_list	pelvis_rotation	pelvis_tx	pelvis_ty	pelvis_tz	hip_flexion_r	hip_adduction_r	hip_rotation_r	knee_angle_r	knee_angle_r_beta	ankle_angle_r	subtalar_angle_r	mtp_angle_r	hip_flexion_l	hip_adduction_l	hip_rotation_l	knee_angle_l	knee_angle_l_beta	ankle_angle_l	subtalar_angle_l	mtp_angle_l	lumbar_extension	lumbar_bending	lumbar_rotation	arm_flex_r	arm_add_r	arm_rot_r	elbow_flex_r	pro_sup_r	arm_flex_l	arm_add_l	arm_rot_l	elbow_flex_l	pro_sup_l
      3.91666670	      9.82280610	     -5.18611037	      5.54381339	     -0.36103506	      0.54362286	     -0.38839439	     82.85829327	     -3.54442745	     -1.05311235	     60.99504713	      1.06456440	     36.94251197	     16.68198815	     -7.49999987	     82.88516479	      9.55378764	      1.29501090	     56.92605585	      0.99354710	     29.43912597	     22.05196827	     -7.49999987	    -66.04199732	     -5.61421416	     11.50549136	    109.04250095	      1.11799953	     31.61073093	     52.30178863	     72.54417739	     35.33535084	     -1.19062397	      8.25966782	     49.95511403	     68.33136785
      3.93333330	     11.14452902	     -4.67048704	      5.41484748	     -0.37749248	      0.54004121	     -0.38731853	     80.47824759	     -2.86442535	     -0.16104746	     57.65068484	      1.00619427	     36.83931186	     15.67568423	     -7.49999987	     79.83556884	      9.93461416	      2.63142908	     53.36243092	      0.93135012	     29.95365241	     24.40448637	     -7.49999987	    -66.60688329	     -5.48457769	     13.15658441	    106.18871350	      0.12848945	     31.91965098	     52.45319117	     70.91109556	     30.81166430	     -1.08575849	     10.13858553	     49.07380821	     67.79754529
      3.95000000	     12.71515434	     -4.33876360	      5.66265225	     -0.38834046	      0.54103384	     -0.38732740	     78.22283687	     -2.36829931	      1.08003760	     55.25613110	      0.96440142	     35.70882731	     14.62341858	     -7.49999987	     76.94073235	     10.35321323	      3.68518745	     50.29884840	      0.87788051	     29.98259086	     25.99425285	     -7.49999987	    -67.24195160	     -4.89923587	     14.67461668	    103.07106091	     -0.88606280	     31.68889947	     52.68064036	     70.17188833	     26.73696385	     -1.41205814	     12.24147884	     47.78563454	     67.13815989
      3.96666670	     13.98948649	     -3.93877725	      5.70140196	     -0.39897042	      0.55546563	     -0.38417940	     75.74536218	     -1.60619663	      2.15316168	     53.05553301	      0.92599374	     33.48607307	     13.27758960	     -7.49999987	     73.51311970	     10.45650149	      4.85192581	     46.57942227	      0.81296428	     28.72454465	     24.84745973	     -7.49999987	    -67.93919389	     -4.64091786	     15.90730414	    100.06633169	     -1.47545358	     31.16968689	     51.52911013	     69.55018587	     23.69148295	     -2.30126053	     14.66154598	     46.21182662	     65.56204656
      3.98333330	     15.41536672	     -3.76460221	      5.43148315	     -0.42227551	      0.55683968	     -0.38561928	     72.93596102	     -0.66603283	      2.80272135	     50.04930254	      0.87352512	     30.15761832	     11.38829785	     -7.49999987	     70.17215076	     10.23773757	      6.10174253	     43.03895820	      0.75117153	     25.97112760	     22.39886022	     -7.49999987	    -68.63743501	     -4.27700706	     17.45009818	     97.82960182	     -2.32555400	     31.67122101	     49.26495937	     68.75872871	     21.52048585	     -3.37293966	     17.72393298	     44.87366785	     64.74452699
      4.00000000	     16.67963316	     -3.55387226	      4.99743869	     -0.42880426	      0.55298687	     -0.39281121	     71.04467248	      0.01797630	      3.60942672	     47.66899652	      0.83198094	     26.48733342	      8.64251814	     -7.49999987	     67.87745583	     10.37004668	      7.33502528	     40.73192996	      0.71090629	     23.69802693	     18.62279922	     -7.49999987	    -68.79808178	     -3.69961522	     18.81635746	     96.00000877	     -3.27792269	     33.33450385	     46.71232486	     68.17009336	     19.04318778	     -4.74423790	     21.30865562	     43.65151542	     62.58448144
      4.01666670	     17.55003113	     -3.41624409	      4.79235876	     -0.43604932	      0.55107703	     -0.39324702	     69.83227719	      0.51123018	      4.52366060	     46.19072142	      0.80618017	     23.02347652	      7.09624943	     -7.49999987	     66.74158857	     10.67375865	      8.22749657	     39.82775916	      0.69512553	     20.63043946	     15.10172879	     -7.49999987	    -68.51503429	     -2.89589503	     19.69032767	     93.41083099	     -3.87510155	     35.32497532	     44.76304615	     67.71165118	     16.44385975	     -6.61799192	     23.48748108	     44.03035612	     60.97074057
      4.03333330	     18.06796439	     -3.52521737	      4.47891666	     -0.43754508	      0.54661286	     -0.39093575	     69.14365145	      1.31280942	      4.98983184	     45.25548495	      0.78985722	     21.54980043	      5.74037271	     -7.49999987	     66.45718617	     11.02033536	      9.65966979	     39.89305439	      0.69626515	     18.91452236	     10.39789833	     -7.49999987	    -67.42349581	     -1.94543838	     20.67313688	     89.80210204	     -4.35874199	     37.58671454	     43.40837636	     67.14826129	     14.45915364	     -9.19766043	     25.79432441	     45.10580264	     59.25469503
      4.05000000	     18.39243980	     -3.73299938	      4.25515870	     -0.43674359	      0.54712004	     -0.39100965	     68.62331065	      2.08390414	      5.60481261	     44.58118857	      0.77808853	     21.34007705	      4.66202991	     -7.49999987	     66.42971367	     11.39555561	     10.72804643	     40.73042439	      0.71088001	     18.23608822	      4.74505253	     -7.49999987	    -65.90660027	     -1.12637234	     21.30013204	     85.27640254	     -4.76044302	     39.40744615	     42.07585208	     66.28902077	     11.73020603	    -12.07125602	     26.14083834	     47.27219513	     56.92378559
